<svg xmlns="http://www.w3.org/2000/svg" viewBox="0 0 1624.14 153.56"><defs><style>.cls-1{fill:#9efc30;}</style></defs><g id="Layer_2" data-name="Layer 2"><g id="Layer_1-2" data-name="Layer 1"><path class="cls-1" d="M119.47,76.56c0-21.86-9.74-42.84-26.06-56.11-13.78-11.37-31-16.9-52.62-16.9H0V149.78H40.56c22.38,0,38.53-5.2,52.36-16.87A74,74,0,0,0,119.47,76.56ZM77,116.56c-9.84,8.88-22.43,12.68-42.09,12.68H24.38V24.07H34.89c19.79,0,32,3.75,42.11,12.92,10.75,9.56,17.18,24.36,17.18,39.57s-6.59,30.61-17.2,40Z"/><path class="cls-1" d="M205.77.15c-43.38,0-78.68,33.87-78.68,75.5,0,21.27,7.91,40.9,22.28,55.27s34,22.28,55.27,22.28c21.63,0,41.64-7.81,56.35-22a74.91,74.91,0,0,0,22.79-54.42C283.78,33.78,249.51.15,205.77.15Zm-.22,131.17a51.88,51.88,0,0,1-37.71-16.13,56,56,0,0,1-15.46-39.08A54.18,54.18,0,0,1,168,38a52,52,0,0,1,73.52-1.48c.51.49,1,1,1.48,1.48a55,55,0,0,1,15.48,38.58c0,30.19-23.74,54.73-52.93,54.73Z"/><polygon class="cls-1" points="292.11 3.55 292.11 149.8 363.02 149.8 363.02 129.28 316.49 129.28 316.49 3.55 292.11 3.55"/><path class="cls-1" d="M431.16,153.2c11.93,0,22-2.31,34.43-7.93V118.12c-10.69,9.43-20.56,13.2-33.75,13.2-30.06,0-52.72-23.25-52.72-54.08S402,22,431.12,22c13,0,23.32,4,34.43,13.72V8.48c-12.33-6-22.11-8.33-34.43-8.33A77.14,77.14,0,0,0,353.79,77.1h0v.37C353.83,119.94,387.8,153.2,431.16,153.2Z"/><polygon class="cls-1" points="552.77 24.07 552.77 3.55 474.15 3.55 474.15 149.8 552.77 149.8 552.77 129.28 498.53 129.28 498.53 83.3 550.72 83.3 550.72 62.78 498.53 62.78 498.53 24.07 552.77 24.07"/><path class="cls-1" d="M586.46,131.92c0,12.54,10,21.64,23.82,21.64,8.11,0,15.59-3.16,24.26-10.26l.19-.16,7.66,8.7h17.77l-15.26-17.3.17-.17c6.08-6.08,7.44-7.64,9.82-10.8l-8.46-8.23a101.91,101.91,0,0,1-9.25,10.34l-.2.19L624,111l.27-.15c9.58-5.59,13.86-11.29,13.86-18.47,0-10.38-8.82-18.2-20.5-18.2-12,0-20.73,7.85-20.73,18.66,0,5.38,2.1,9.68,7.73,15.88l.2.22-.24.16a20.47,20.47,0,0,1-2.15,1.3l-1.2.66c-5.82,3.43-5.82,3.43-6.83,4.33A21.25,21.25,0,0,0,586.46,131.92Zm31.73-47.61c4.74,0,8.06,3.22,8.06,7.82,0,4-2.23,6.82-8.83,11.22l-.19.13-.15-.18c-5.89-6.93-6.71-8.33-6.71-11.51a7.49,7.49,0,0,1,7.47-7.49Zm-6.33,33,.19-.13,14.76,17-.2.16c-5.79,4.75-9.72,6.6-14,6.6-6.29,0-11.6-5-11.6-10.81,0-4.35,2.5-7.35,10.85-12.87Z"/><path class="cls-1" d="M806.25,76.41c0-21.86-9.74-42.84-26.06-56.11-13.78-11.37-31-16.9-52.62-16.9H686.79V149.65h40.55c22.39,0,38.54-5.2,52.36-16.87A74,74,0,0,0,806.25,76.41Zm-42.48,40c-9.84,8.88-22.44,12.68-42.1,12.68h-10.5V23.92h10.5c19.8,0,32,3.75,42.12,12.92C774.54,46.4,781,61.2,781,76.41s-6.59,30.61-17.2,40Z"/><path class="cls-1" d="M886.6,149.65h29.84l-47-63,4-.77c8.67-1.65,13.83-4,19.71-9,8-6.87,12.7-18.62,12.7-31.4,0-12.6-5.38-24.88-14-32.07C884,6.81,871.21,3.33,854.91,3.33H813.67V149.65h24.4V88.83h7.78ZM838,22.11h11.64c19.94,0,30.93,9,30.93,25.25S869.1,73.07,849.15,73.07H838Z"/><path class="cls-1" d="M1023.58,117.65l12.94,32h26L1001.07.23H982.24L918.83,149.65h25.75l13.62-32ZM991.5,35l24.79,64H965.64Z"/><path class="cls-1" d="M1197.22,73.78h-64.06v20.5h36l-.34,2.86c-2.41,20.49-19.39,34.26-42.25,34.26-29.67,0-52-23.25-52-54.08,0-15.36,5.27-29.43,14.82-39.6a50.73,50.73,0,0,1,37.44-15.84c17.18,0,30.67,7.28,40.16,21.65l21.34-11.42c-13.82-21-35-32.11-61.27-32.11-45.07,0-77.77,32.52-77.77,77.32,0,43.88,32.32,75.73,76.86,75.73,28.91,0,51.47-13.51,63.52-38C1195,104.46,1196.88,94.23,1197.22,73.78Z"/><path class="cls-1" d="M1288.5,117.65l12.94,32h26L1266,.23h-18.83l-63.42,149.42h25.76l13.62-32ZM1256.41,35l24.8,64h-50.66Z"/><polygon class="cls-1" points="1472.67 152.6 1472.67 3.4 1448.29 3.4 1448.29 109.55 1352.43 0 1335.73 0 1335.73 149.65 1360.11 149.65 1360.11 43.04 1455.97 152.6 1472.67 152.6"/><path class="cls-1" d="M1585.21,117.65l12.93,32h26L1562.7.23h-18.83l-63.41,149.42h25.75l13.62-32ZM1553.12,35l24.79,64h-50.65Z"/></g></g></svg>